<svg width="156" height="110" viewBox="0 0 156 110" fill="none" xmlns="http://www.w3.org/2000/svg">
<path fill-rule="evenodd" clip-rule="evenodd" d="M65.7465 48.3862C63.6797 50.1757 61.3224 51.7591 58.9748 52.4456C56.6004 53.1399 54.6315 53.6089 52.8778 54.0266C47.1656 55.3871 43.7351 56.2042 36.0011 62.4953C25.8927 71.6313 31.4063 88.9898 58.9748 92.6442C63.8671 92.6442 66.2533 93.4292 67.4361 94.2645C68.6169 95.0984 68.5679 96.7661 68.1269 98.1428C66.2807 103.907 61.0215 108.038 54.8611 107.175C37.1208 104.691 16.8031 94.7636 7.34428 77.2993C-4.7015 55.0586 6.15407 44.0585 15.0261 35.0683C16.418 33.6579 17.7611 32.2969 18.9592 30.9497C16.9478 25.7197 16.0695 14.7583 23.7903 8.36169C34.7971 -0.757261 56.678 -0.902613 66.1526 13.3873C68.2984 16.6236 70.2117 20.1236 71.3251 23.8436C72.0046 26.1136 72.289 28.52 72.289 30.915C72.289 37.4875 70.732 44.0698 65.7465 48.3862ZM44.7908 40.9244C53.4562 40.9244 60.4808 34.5384 60.4808 26.6608C60.4808 18.7832 53.4562 12.3972 44.7908 12.3972C36.1255 12.3972 29.1009 18.7832 29.1009 26.6608C29.1009 34.5384 36.1255 40.9244 44.7908 40.9244Z" fill="black"/>
<path fill-rule="evenodd" clip-rule="evenodd" d="M23.7903 8.36165L22.5143 6.82154C28.4791 1.87983 37.2372 -0.540807 45.6975 0.101885C54.1874 0.746829 62.6634 4.50542 67.8195 12.2821C70.0219 15.6037 72.0494 19.2885 73.2411 23.27C73.9869 25.7617 74.289 28.3666 74.289 30.9149C74.289 37.7296 72.6835 45.0257 67.0557 49.8982C64.8984 51.766 62.2844 53.5616 59.5361 54.3652C57.1129 55.0738 55.1034 55.5524 53.3512 55.9697L53.3412 55.9721C50.4659 56.657 48.3644 57.1631 46.0293 58.2308C43.7078 59.2924 41.0739 60.9506 37.3046 64.013C32.9645 67.9626 32.0318 73.5228 35.0744 78.5968C38.1919 83.7958 45.7324 88.8454 59.1092 90.6444C64.0477 90.6583 66.9096 91.4442 68.5899 92.6308C69.764 93.4601 70.2497 94.675 70.3764 95.7702C70.4993 96.8321 70.3079 97.8903 70.0316 98.7528C67.951 105.248 61.898 110.18 54.5837 109.156C36.4565 106.617 15.447 96.4593 5.58566 78.2518C-0.641348 66.7545 -1.08974 57.8566 1.45227 50.5571C3.91827 43.4758 9.12023 38.205 13.4805 33.7871L13.6026 33.6634C14.6953 32.5562 15.7301 31.5071 16.6821 30.4811C15.7997 27.64 15.2735 23.8092 15.7389 19.8591C16.2762 15.2983 18.1594 10.4296 22.5143 6.82155L23.7903 8.36165ZM18.9592 30.9497C16.9478 25.7196 16.0695 14.7582 23.7903 8.36165C34.7971 -0.757295 56.678 -0.902648 66.1526 13.3873C68.2984 16.6236 70.2117 20.1236 71.3251 23.8435C72.0046 26.1136 72.289 28.52 72.289 30.9149C72.289 37.4875 70.732 44.0698 65.7466 48.3862C63.6797 50.1757 61.3224 51.7591 58.9748 52.4456C56.6004 53.1399 54.6316 53.6088 52.8778 54.0265C47.1656 55.3871 43.7351 56.2042 36.0011 62.4952C25.8927 71.6313 31.4064 88.9898 58.9748 92.6442C63.8671 92.6442 66.2533 93.4291 67.4361 94.2645C68.6169 95.0984 68.5679 96.766 68.1269 98.1427C66.2807 103.906 61.0215 108.038 54.8611 107.175C37.1208 104.691 16.8031 94.7636 7.34428 77.2993C-4.70149 55.0586 6.15408 44.0584 15.0261 35.0683C16.418 33.6578 17.7611 32.2969 18.9592 30.9497ZM44.7908 38.9244C52.5352 38.9244 58.4808 33.2586 58.4808 26.6607C58.4808 20.0629 52.5352 14.3971 44.7908 14.3971C37.0464 14.3971 31.1009 20.0629 31.1009 26.6607C31.1009 33.2586 37.0464 38.9244 44.7908 38.9244ZM60.4808 26.6607C60.4808 34.5383 53.4562 40.9244 44.7908 40.9244C36.1255 40.9244 29.1009 34.5383 29.1009 26.6607C29.1009 18.7832 36.1255 12.3971 44.7908 12.3971C53.4562 12.3971 60.4808 18.7832 60.4808 26.6607Z" fill="black"/>
<path fill-rule="evenodd" clip-rule="evenodd" d="M89.8315 48.3862C91.8983 50.1757 94.2556 51.7591 96.6032 52.4456C98.9776 53.1399 100.946 53.6089 102.7 54.0266C108.412 55.3871 111.843 56.2042 119.577 62.4953C129.685 71.6313 124.172 88.9898 96.6032 92.6442C91.7109 92.6442 89.3247 93.4292 88.1419 94.2645C86.9611 95.0984 87.0101 96.7661 87.4511 98.1428C89.2973 103.907 94.5565 108.038 100.717 107.175C118.457 104.691 138.775 94.7636 148.234 77.2993C160.28 55.0586 149.424 44.0585 140.552 35.0683C139.16 33.6579 137.817 32.2969 136.619 30.9497C138.63 25.7197 139.509 14.7583 131.788 8.36169C120.781 -0.757261 98.9 -0.902613 89.4254 13.3873C87.2796 16.6236 85.3663 20.1236 84.2529 23.8436C83.5734 26.1136 83.289 28.52 83.289 30.915C83.289 37.4875 84.846 44.0698 89.8315 48.3862ZM110.787 40.9244C102.122 40.9244 95.0972 34.5384 95.0972 26.6608C95.0972 18.7832 102.122 12.3972 110.787 12.3972C119.453 12.3972 126.477 18.7832 126.477 26.6608C126.477 34.5384 119.453 40.9244 110.787 40.9244Z" fill="black"/>
<path fill-rule="evenodd" clip-rule="evenodd" d="M131.788 8.36165L133.064 6.82154C127.099 1.87983 118.341 -0.540807 109.88 0.101885C101.391 0.746829 92.9146 4.50542 87.7585 12.2821C85.5562 15.6037 83.5286 19.2885 82.3369 23.27C81.5911 25.7617 81.289 28.3666 81.289 30.9149C81.289 37.7296 82.8945 45.0257 88.5223 49.8982C90.6796 51.766 93.2936 53.5616 96.0419 54.3652C98.4651 55.0738 100.475 55.5524 102.227 55.9697L102.237 55.9721C105.112 56.657 107.214 57.1631 109.549 58.2308C111.87 59.2924 114.504 60.9506 118.273 64.013C122.613 67.9626 123.546 73.5228 120.504 78.5968C117.386 83.7958 109.846 88.8454 96.4688 90.6444C91.5303 90.6583 88.6684 91.4442 86.9881 92.6308C85.814 93.4601 85.3283 94.675 85.2016 95.7702C85.0787 96.8321 85.2701 97.8903 85.5464 98.7528C87.627 105.248 93.68 110.18 100.994 109.156C119.122 106.617 140.131 96.4593 149.992 78.2518C156.219 66.7545 156.668 57.8566 154.126 50.5571C151.66 43.4758 146.458 38.205 142.097 33.7871L141.975 33.6634C140.883 32.5562 139.848 31.5071 138.896 30.4811C139.778 27.64 140.304 23.8092 139.839 19.8591C139.302 15.2983 137.419 10.4296 133.064 6.82155L131.788 8.36165ZM136.619 30.9497C138.63 25.7196 139.509 14.7582 131.788 8.36165C120.781 -0.757295 98.9 -0.902648 89.4254 13.3873C87.2796 16.6236 85.3663 20.1236 84.2529 23.8435C83.5734 26.1136 83.289 28.52 83.289 30.9149C83.289 37.4875 84.846 44.0698 89.8315 48.3862C91.8983 50.1757 94.2556 51.7591 96.6032 52.4456C98.9776 53.1399 100.946 53.6088 102.7 54.0265C108.412 55.3871 111.843 56.2042 119.577 62.4952C129.685 71.6313 124.172 88.9898 96.6032 92.6442C91.7109 92.6442 89.3247 93.4291 88.1419 94.2645C86.9611 95.0984 87.0101 96.766 87.4511 98.1427C89.2973 103.906 94.5565 108.038 100.717 107.175C118.457 104.691 138.775 94.7636 148.234 77.2993C160.279 55.0586 149.424 44.0584 140.552 35.0683C139.16 33.6578 137.817 32.2969 136.619 30.9497ZM110.787 38.9244C103.043 38.9244 97.0972 33.2586 97.0972 26.6607C97.0972 20.0629 103.043 14.3971 110.787 14.3971C118.532 14.3971 124.477 20.0629 124.477 26.6607C124.477 33.2586 118.532 38.9244 110.787 38.9244ZM95.0972 26.6607C95.0972 34.5383 102.122 40.9244 110.787 40.9244C119.453 40.9244 126.477 34.5383 126.477 26.6607C126.477 18.7832 119.453 12.3971 110.787 12.3971C102.122 12.3971 95.0972 18.7832 95.0972 26.6607Z" fill="black"/>
</svg>
